<svg data-v-fde0c5aa="" xmlns="http://www.w3.org/2000/svg" viewBox="0 0 300 300" class="iconLeft">
    <defs data-v-fde0c5aa=""></defs>
    <rect data-v-fde0c5aa="" fill="#442D81" x="0" y="0" width="300px" height="300px" class="logo-background-square"></rect>
    <defs data-v-fde0c5aa=""></defs>
    <defs data-v-fde0c5aa=""></defs>
    <g data-v-fde0c5aa="" 
        id="d987d5fd-91fb-4fb4-b19c-ea1b4ab6036c" 
        stroke="none" 
        fill="#ffffff" 
        transform="translate(47.5 47.5) scale(2)">
        <path d="M81 11c-5 0-9 4-9 9s4 9 9 9 9-4 9-9-4-9-9-9zm0 16c-3.9 0-7-3.1-7-7s3.1-7 7-7 7 3.1 7 7-3.1 7-7 7zM81 41c-2.6 0-4.9 1.1-6.6 2.9L57.3 25.3C58.4 23.8 59 22 59 20c0-5-4-9-9-9s-9 4-9 9 4 9 9 9c2.3 0 4.3-.9 5.9-2.2l17.3 18.7c-.7 1.3-1.2 2.9-1.2 4.5 0 5 4 9 9 9s9-4 9-9-4-9-9-9zM50 27c-3.9 0-7-3.1-7-7s3.1-7 7-7 7 3.1 7 7-3.1 7-7 7zm31 30c-3.9 0-7-3.1-7-7s3.1-7 7-7 7 3.1 7 7-3.1 7-7 7zM50 59c5 0 9-4 9-9s-4-9-9-9-9 4-9 9 4 9 9 9zm0-16c3.9 0 7 3.1 7 7s-3.1 7-7 7-7-3.1-7-7 3.1-7 7-7zM19 89c5 0 9-4 9-9s-4-9-9-9-9 4-9 9 4 9 9 9zm0-16c3.9 0 7 3.1 7 7s-3.1 7-7 7-7-3.1-7-7 3.1-7 7-7z"></path>
        <path d="M81 71c-4.6 0-8.4 3.5-8.9 8H58.9c-.5-4.5-4.3-8-8.9-8-3.2 0-6 1.7-7.6 4.2l-18-18c2.2-1.6 3.6-4.3 3.6-7.2 0-4.6-3.5-8.4-8-8.9V28.9c4.5-.5 8-4.3 8-8.9 0-5-4-9-9-9s-9 4-9 9c0 4.6 3.5 8.4 8 8.9V41c-4.5.5-8 4.3-8 8.9 0 5 4 9 9 9 1.3 0 2.5-.3 3.6-.7l18.9 18.9c-.3.9-.5 1.9-.5 2.9 0 5 4 9 9 9 4.6 0 8.4-3.5 8.9-8H72c.5 4.5 4.3 8 8.9 8 5 0 9-4 9-9S86 71 81 71zM12 20c0-3.9 3.1-7 7-7s7 3.1 7 7-3.1 7-7 7-7-3.1-7-7zm0 30c0-3.9 3.1-7 7-7s7 3.1 7 7-3.1 7-7 7-7-3.1-7-7zm38 37c-3.9 0-7-3.1-7-7s3.1-7 7-7 7 3.1 7 7-3.1 7-7 7zm31 0c-3.9 0-7-3.1-7-7s3.1-7 7-7 7 3.1 7 7-3.1 7-7 7z"></path>
    </g>
</svg>