<svg data-v-423bf9ae="" xmlns="http://www.w3.org/2000/svg" viewBox="0 0 529.842000467679 60" class="font"><!----><!----><!----><g data-v-423bf9ae="" id="b471dcde-b083-4e91-87f2-5334fbe0b1d8" fill="black" transform="matrix(5.610949993133545,0,0,5.610949993133545,-6.28427267074585,-0.35505935549736023)"><path d="M6.43 2.23L6.43 2.23L3.46 2.23C3.19 2.23 2.98 2.42 2.98 2.69L2.98 4.56C2.98 4.82 3.19 5.03 3.46 5.03L5.56 5.03C5.81 5.03 6.02 4.82 6.02 4.56C6.02 4.30 5.81 4.09 5.56 4.09L3.92 4.09L3.92 3.15L6.43 3.15C6.69 3.15 6.90 2.94 6.90 2.69C6.90 2.42 6.69 2.23 6.43 2.23ZM5.56 5.96L5.56 5.96L3.46 5.96C3.19 5.96 2.98 6.17 2.98 6.43L2.98 10.18C2.98 10.43 3.19 10.64 3.46 10.64C3.71 10.64 3.92 10.43 3.92 10.18L3.92 6.90L5.56 6.90C5.81 6.90 6.02 6.69 6.02 6.43C6.02 6.17 5.81 5.96 5.56 5.96ZM2.04 10.18L2.04 10.18L2.04 1.29L6.43 1.29C6.69 1.29 6.90 1.08 6.90 0.81C6.90 0.56 6.69 0.35 6.43 0.35L1.58 0.35C1.32 0.35 1.12 0.56 1.12 0.81L1.12 10.18C1.12 10.43 1.32 10.64 1.58 10.64C1.83 10.64 2.04 10.43 2.04 10.18ZM14.48 9.70L14.48 9.70L9.49 9.70L9.49 0.81C9.49 0.56 9.28 0.35 9.03 0.35C8.76 0.35 8.55 0.56 8.55 0.81L8.55 10.18C8.55 10.43 8.76 10.64 9.03 10.64L14.48 10.64C14.74 10.64 14.94 10.43 14.94 10.18C14.94 9.91 14.74 9.70 14.48 9.70ZM10.43 0.81L10.43 0.81L10.43 8.30C10.43 8.55 10.64 8.76 10.89 8.76L14.48 8.76C14.74 8.76 14.94 8.55 14.94 8.30C14.94 8.04 14.74 7.83 14.48 7.83L11.37 7.83L11.37 0.81C11.37 0.56 11.16 0.35 10.89 0.35C10.64 0.35 10.43 0.56 10.43 0.81ZM19.36 7.84L19.36 7.84L20.72 7.84C20.99 7.84 21.21 7.63 21.21 7.36C21.21 7.29 21.20 7.24 21.17 7.18L20.48 5.50C20.38 5.28 20.12 5.17 19.87 5.26C19.64 5.35 19.53 5.63 19.61 5.87L20.03 6.90L19.36 6.90C19.11 6.90 18.90 7.10 18.90 7.36C18.90 7.63 19.11 7.84 19.36 7.84ZM18.68 10.26L18.68 10.26L18.91 9.72L21.18 9.72L21.41 10.26C21.50 10.51 21.78 10.61 22.02 10.53C22.26 10.42 22.36 10.15 22.27 9.91L21.94 9.10C21.88 8.92 21.70 8.76 21.49 8.76L18.59 8.76L18.59 8.76C18.42 8.76 18.24 8.89 18.16 9.06L17.82 9.91C17.72 10.15 17.84 10.42 18.07 10.53C18.33 10.61 18.59 10.50 18.68 10.26ZM16.67 10.26L16.67 10.26L20.05 1.76L23.42 10.26C23.52 10.50 23.80 10.61 24.04 10.53C24.28 10.42 24.39 10.15 24.29 9.91L20.48 0.36C20.44 0.25 20.36 0.14 20.22 0.10C19.99 0 19.71 0.11 19.61 0.36L15.79 9.91C15.71 10.15 15.83 10.42 16.06 10.53C16.30 10.61 16.56 10.50 16.67 10.26ZM33.12 9.63L33.12 9.63L33.12 5.49C33.12 4.87 32.19 4.87 32.19 5.49L32.19 9.35C29.48 10.68 25.96 9.10 25.90 5.57C25.84 2.23 28.95 0.39 32.24 1.46L32.24 1.46C32.90 1.68 33.19 0.78 32.52 0.57C28.60-0.69 24.89 1.60 24.96 5.59C25.03 9.84 29.37 11.97 32.87 10.04C33.03 9.95 33.12 9.80 33.12 9.63ZM32.38 2.51L32.38 2.51C31.75 2.24 31.04 2.11 30.21 2.14C25.77 2.30 25.97 8.83 30.23 8.83C30.58 8.83 31.22 8.82 31.22 8.32L31.22 5.49C31.22 4.87 30.27 4.87 30.27 5.49L30.27 7.88C27.15 7.91 27.05 3.19 30.24 3.07C30.91 3.05 31.50 3.15 32.00 3.37C32.56 3.61 32.94 2.77 32.38 2.51ZM44.60 2.23L44.60 2.23L41.64 2.23C41.37 2.23 41.16 2.42 41.16 2.69L41.16 4.56C41.16 4.82 41.37 5.03 41.64 5.03L43.74 5.03C43.99 5.03 44.20 4.82 44.20 4.56C44.20 4.30 43.99 4.09 43.74 4.09L42.10 4.09L42.10 3.15L44.60 3.15C44.87 3.15 45.08 2.94 45.08 2.69C45.08 2.42 44.87 2.23 44.60 2.23ZM43.74 5.96L43.74 5.96L41.64 5.96C41.37 5.96 41.16 6.17 41.16 6.43L41.16 10.18C41.16 10.43 41.37 10.64 41.64 10.64C41.89 10.64 42.10 10.43 42.10 10.18L42.10 6.90L43.74 6.90C43.99 6.90 44.20 6.69 44.20 6.43C44.20 6.17 43.99 5.96 43.74 5.96ZM40.22 10.18L40.22 10.18L40.22 1.29L44.60 1.29C44.87 1.29 45.08 1.08 45.08 0.81C45.08 0.56 44.87 0.35 44.60 0.35L39.76 0.35C39.49 0.35 39.30 0.56 39.30 0.81L39.30 10.18C39.30 10.43 39.49 10.64 39.76 10.64C40.01 10.64 40.22 10.43 40.22 10.18ZM49.55 10.18L49.55 10.18L49.55 0.81C49.55 0.56 49.34 0.35 49.08 0.35C48.82 0.35 48.61 0.56 48.61 0.81L48.61 10.18C48.61 10.43 48.82 10.64 49.08 10.64C49.34 10.64 49.55 10.43 49.55 10.18ZM47.67 10.18L47.67 10.18L47.67 0.81C47.67 0.56 47.46 0.35 47.21 0.35C46.94 0.35 46.73 0.56 46.73 0.81L46.73 10.18C46.73 10.43 46.94 10.64 47.21 10.64C47.46 10.64 47.67 10.43 47.67 10.18ZM52.72 10.18L52.72 10.18L52.72 0.81C52.72 0.56 52.53 0.36 52.26 0.36C52.01 0.36 51.80 0.56 51.80 0.81L51.80 10.18C51.80 10.43 52.01 10.65 52.26 10.65C52.53 10.65 52.72 10.43 52.72 10.18ZM60.37 10.18L60.37 10.18L60.37 0.81C60.37 0.56 60.16 0.36 59.89 0.36C59.64 0.36 59.43 0.56 59.43 0.81L59.43 10.18C59.43 10.43 59.64 10.65 59.89 10.65C60.16 10.65 60.37 10.43 60.37 10.18ZM58.59 9.91L58.59 9.91L54.52 4.09C54.38 3.86 54.07 3.81 53.87 3.98C53.73 4.06 53.68 4.20 53.68 4.35L53.68 10.18C53.68 10.43 53.87 10.64 54.12 10.64C54.39 10.64 54.60 10.43 54.60 10.18L54.60 5.84L57.82 10.44C57.97 10.65 58.25 10.71 58.48 10.57C58.67 10.40 58.73 10.12 58.59 9.91ZM53.58 1.09L53.58 1.09L57.64 6.92C57.79 7.13 58.07 7.18 58.28 7.03C58.42 6.94 58.49 6.79 58.49 6.64L58.49 0.81C58.49 0.56 58.28 0.36 58.03 0.36C57.78 0.36 57.55 0.56 57.55 0.81L57.55 5.17L54.33 0.56C54.19 0.35 53.90 0.28 53.69 0.45C53.48 0.59 53.42 0.87 53.58 1.09ZM65.88 8.78L65.88 8.78C67.80 8.78 69.08 7.34 69.08 5.49C69.08 3.65 67.80 2.21 65.88 2.21L64.96 2.21C64.71 2.21 64.50 2.42 64.50 2.69L64.50 6.43C64.50 6.69 64.71 6.90 64.96 6.90C65.23 6.90 65.42 6.69 65.42 6.43L65.42 3.15L65.88 3.15C67.27 3.15 68.15 4.17 68.15 5.49C68.15 6.82 67.27 7.84 65.88 7.84L64.96 7.84C64.71 7.84 64.50 8.05 64.50 8.30C64.50 8.57 64.71 8.78 64.96 8.78ZM63.56 10.18L63.56 10.18L63.56 1.29L65.88 1.29C68.39 1.29 70.10 3.05 70.10 5.49C70.10 7.94 68.39 9.70 65.88 9.70L64.95 9.70C64.69 9.70 64.48 9.91 64.48 10.18C64.48 10.43 64.69 10.64 64.95 10.64L65.88 10.64C68.92 10.64 71.04 8.46 71.04 5.49C71.04 2.53 68.92 0.35 65.88 0.35L63.08 0.35C62.83 0.35 62.62 0.56 62.62 0.81L62.62 10.18C62.62 10.43 62.83 10.64 63.08 10.64C63.35 10.64 63.56 10.43 63.56 10.18ZM78.22 2.23L78.22 2.23L75.25 2.23C74.98 2.23 74.77 2.42 74.77 2.69L74.77 4.56C74.77 4.82 74.98 5.03 75.25 5.03L77.35 5.03C77.62 5.03 77.83 4.82 77.83 4.56C77.83 4.30 77.62 4.09 77.35 4.09L75.71 4.09L75.71 3.15L78.22 3.15C78.48 3.15 78.69 2.94 78.69 2.69C78.69 2.42 78.48 2.23 78.22 2.23ZM77.35 5.96L77.35 5.96L75.25 5.96C74.98 5.96 74.77 6.17 74.77 6.43L74.77 8.30C74.77 8.55 74.98 8.76 75.25 8.76L78.22 8.76C78.48 8.76 78.69 8.55 78.69 8.30C78.69 8.04 78.48 7.83 78.22 7.83L75.71 7.83L75.71 6.90L77.35 6.90C77.62 6.90 77.83 6.69 77.83 6.43C77.83 6.17 77.62 5.96 77.35 5.96ZM78.22 9.70L78.22 9.70L73.85 9.70L73.85 1.29L78.22 1.29C78.48 1.29 78.69 1.08 78.69 0.81C78.69 0.56 78.48 0.35 78.22 0.35L73.37 0.35C73.12 0.35 72.91 0.56 72.91 0.81L72.91 10.18C72.91 10.43 73.12 10.64 73.37 10.64L78.22 10.64C78.48 10.64 78.69 10.43 78.69 10.18C78.69 9.91 78.48 9.70 78.22 9.70ZM84.57 5.03L84.57 5.03C85.34 5.03 85.99 4.42 85.99 3.64C85.99 2.93 85.43 2.21 84.57 2.21L82.91 2.21C82.29 2.21 82.29 3.15 82.91 3.15L84.57 3.15C84.84 3.15 85.06 3.35 85.06 3.63C85.06 4.17 84.55 4.10 84.11 4.10C83.36 4.10 83.38 4.98 84.11 5.03C84.27 5.04 84.45 5.03 84.57 5.03ZM85.44 9.90L85.44 9.90L83.30 6.83C83.03 6.48 82.45 6.62 82.45 7.13L82.45 10.18C82.45 10.79 83.38 10.79 83.38 10.18L83.38 8.58L84.67 10.44C85.04 10.95 85.79 10.40 85.44 9.90ZM81.51 10.18L81.51 10.18L81.51 1.29L84.73 1.29C85.36 1.29 85.93 1.54 86.35 1.96C87.79 3.42 86.79 5.96 84.73 5.96C84.38 5.96 84.10 6.37 84.38 6.73L86.97 10.44C87.30 10.95 88.07 10.40 87.72 9.90L85.55 6.79C86.11 6.65 86.62 6.34 87.02 5.94C89.04 3.86 87.60 0.35 84.73 0.35L81.05 0.35C80.79 0.35 80.57 0.56 80.57 0.81L80.57 10.18C80.57 10.79 81.51 10.79 81.51 10.18ZM94.56 0.71L94.56 0.71C93.58 0.38 92.89 0.27 92.05 0.31C89.17 0.45 87.93 3.99 89.96 5.77C91.27 6.90 92.65 6.79 92.71 7.45C92.79 8.15 90.90 8.01 89.82 7.22C89.33 6.87 88.79 7.63 89.28 7.98C90.20 8.65 91.34 8.88 92.25 8.82C93.00 8.76 93.69 8.19 93.65 7.41C93.55 5.92 91.81 6.16 90.59 5.07C89.59 4.20 89.78 2.73 90.54 1.93C91.46 0.91 92.97 1.15 94.23 1.60C94.82 1.81 95.13 0.91 94.56 0.71ZM89.10 9.97L89.10 9.97C89.64 10.26 90.19 10.44 90.66 10.54C93.28 11.17 95.55 9.97 95.55 7.41C95.55 4.80 92.48 4.24 91.97 3.85C91.50 3.49 91.87 2.62 93.98 3.47C94.56 3.71 94.89 2.84 94.35 2.62C90.86 1.20 90.27 3.68 91.39 4.56C92.11 5.14 94.63 5.49 94.63 7.41C94.63 10.00 91.70 10.29 89.54 9.14C89.00 8.86 88.56 9.69 89.10 9.97ZM92.16 7.90L92.16 7.90L92.16 7.90L92.16 7.90Z"></path></g><!----><!----></svg>