<svg data-v-423bf9ae="" xmlns="http://www.w3.org/2000/svg" viewBox="0 0 697.4721753446421 60" class="font"><!----><!----><!----><g data-v-423bf9ae="" id="70f57c08-34a9-4c6c-b750-4a7c87bc3a10" fill="white" transform="matrix(5.617978096008301,0,0,5.617978096008301,-3.763817071914673,-0.7865173816680908)"><path d="M8.01 0.56L8.01 0.56C7.35 0.29 6.65 0.15 5.94 0.15C2.41 0.15 0.66 2.81 0.67 5.47C0.69 8.09 2.45 10.71 5.94 10.71C6.65 10.71 7.35 10.57 8.01 10.30C8.57 10.08 8.22 9.21 7.64 9.45C7.10 9.66 6.54 9.79 5.94 9.79C3.07 9.79 1.60 7.64 1.58 5.45C1.58 2.98 3.37 1.08 5.89 1.08C6.50 1.08 7.08 1.19 7.64 1.43C8.22 1.65 8.57 0.80 8.01 0.56ZM7.36 7.50L7.36 7.50C6.89 7.77 6.37 7.88 5.88 7.87C4.68 7.83 3.60 6.99 3.60 5.45C3.60 3.26 5.74 2.46 7.36 3.36C7.90 3.67 8.34 2.84 7.80 2.56C5.53 1.29 2.67 2.56 2.67 5.45C2.67 7.52 4.19 8.78 5.89 8.81C6.54 8.82 7.20 8.67 7.80 8.32C8.34 8.02 7.90 7.22 7.36 7.50ZM16.07 2.23L16.07 2.23L13.72 2.23C13.47 2.23 13.26 2.44 13.26 2.70L13.26 10.16C13.26 10.43 13.47 10.64 13.72 10.64C13.99 10.64 14.20 10.43 14.20 10.16L14.20 3.15L16.07 3.15C16.32 3.15 16.52 2.95 16.52 2.70C16.52 2.44 16.32 2.23 16.07 2.23ZM9.53 1.29L9.53 1.29L16.07 1.29C16.32 1.29 16.52 1.08 16.52 0.83C16.52 0.56 16.32 0.36 16.07 0.36L9.53 0.36C9.27 0.36 9.06 0.56 9.06 0.83C9.06 1.08 9.27 1.29 9.53 1.29ZM9.53 3.15L9.53 3.15L11.38 3.15L11.38 10.16C11.38 10.43 11.61 10.64 11.86 10.64C12.12 10.64 12.33 10.43 12.33 10.16L12.33 2.70C12.33 2.44 12.12 2.23 11.86 2.23L9.53 2.23C9.27 2.23 9.06 2.44 9.06 2.70C9.06 2.95 9.27 3.15 9.53 3.15ZM23.34 2.23L23.34 2.23L20.37 2.23C20.10 2.23 19.89 2.42 19.89 2.69L19.89 4.56C19.89 4.82 20.10 5.03 20.37 5.03L22.47 5.03C22.72 5.03 22.93 4.82 22.93 4.56C22.93 4.30 22.72 4.09 22.47 4.09L20.83 4.09L20.83 3.15L23.34 3.15C23.60 3.15 23.81 2.94 23.81 2.69C23.81 2.42 23.60 2.23 23.34 2.23ZM22.47 5.96L22.47 5.96L20.37 5.96C20.10 5.96 19.89 6.17 19.89 6.43L19.89 10.18C19.89 10.43 20.10 10.64 20.37 10.64C20.62 10.64 20.83 10.43 20.83 10.18L20.83 6.90L22.47 6.90C22.72 6.90 22.93 6.69 22.93 6.43C22.93 6.17 22.72 5.96 22.47 5.96ZM18.96 10.18L18.96 10.18L18.96 1.29L23.34 1.29C23.60 1.29 23.81 1.08 23.81 0.81C23.81 0.56 23.60 0.35 23.34 0.35L18.49 0.35C18.23 0.35 18.03 0.56 18.03 0.81L18.03 10.18C18.03 10.43 18.23 10.64 18.49 10.64C18.75 10.64 18.96 10.43 18.96 10.18ZM31.32 0.81L31.32 0.81L31.32 4.56C31.32 4.82 31.53 5.03 31.78 5.03L34.59 5.03C34.85 5.03 35.06 4.82 35.06 4.56L35.06 0.81C35.06 0.56 34.85 0.35 34.59 0.35C34.33 0.35 34.12 0.56 34.12 0.81L34.12 4.09L32.26 4.09L32.26 0.81C32.26 0.56 32.05 0.35 31.78 0.35C31.53 0.35 31.32 0.56 31.32 0.81ZM35.06 10.18L35.06 10.18L35.06 6.43C35.06 6.17 34.85 5.96 34.59 5.96L31.78 5.96C31.53 5.96 31.32 6.17 31.32 6.43L31.32 10.18C31.32 10.43 31.53 10.64 31.78 10.64C32.05 10.64 32.26 10.43 32.26 10.18L32.26 6.90L34.12 6.90L34.12 10.18C34.12 10.43 34.33 10.64 34.59 10.64C34.85 10.64 35.06 10.43 35.06 10.18ZM30.38 10.18L30.38 10.18L30.38 0.81C30.38 0.56 30.17 0.35 29.92 0.35C29.65 0.35 29.44 0.56 29.44 0.81L29.44 10.18C29.44 10.43 29.65 10.64 29.92 10.64C30.17 10.64 30.38 10.43 30.38 10.18ZM35.99 0.81L35.99 0.81L35.99 10.18C35.99 10.43 36.20 10.64 36.46 10.64C36.72 10.64 36.93 10.43 36.93 10.18L36.93 0.81C36.93 0.56 36.72 0.35 36.46 0.35C36.20 0.35 35.99 0.56 35.99 0.81ZM42 10.18L42 10.18L42 0.81C42 0.56 41.79 0.35 41.54 0.35C41.27 0.35 41.06 0.56 41.06 0.81L41.06 10.18C41.06 10.43 41.27 10.64 41.54 10.64C41.79 10.64 42 10.43 42 10.18ZM40.12 10.18L40.12 10.18L40.12 0.81C40.12 0.56 39.91 0.35 39.66 0.35C39.40 0.35 39.19 0.56 39.19 0.81L39.19 10.18C39.19 10.43 39.40 10.64 39.66 10.64C39.91 10.64 40.12 10.43 40.12 10.18ZM51.97 9.63L51.97 9.63L51.97 5.49C51.97 4.87 51.03 4.87 51.03 5.49L51.03 9.35C48.33 10.68 44.80 9.10 44.74 5.57C44.69 2.23 47.80 0.39 51.09 1.46L51.09 1.46C51.74 1.68 52.04 0.78 51.37 0.57C47.45-0.69 43.74 1.60 43.81 5.59C43.88 9.84 48.22 11.97 51.72 10.04C51.87 9.95 51.97 9.80 51.97 9.63ZM51.23 2.51L51.23 2.51C50.60 2.24 49.88 2.11 49.06 2.14C44.62 2.30 44.81 8.83 49.07 8.83C49.42 8.83 50.06 8.82 50.06 8.32L50.06 5.49C50.06 4.87 49.11 4.87 49.11 5.49L49.11 7.88C45.99 7.91 45.89 3.19 49.08 3.07C49.76 3.05 50.34 3.15 50.85 3.37C51.41 3.61 51.79 2.77 51.23 2.51ZM56.04 0.81L56.04 0.81L56.04 4.56C56.04 4.82 56.25 5.03 56.50 5.03L59.32 5.03C59.57 5.03 59.78 4.82 59.78 4.56L59.78 0.81C59.78 0.56 59.57 0.35 59.32 0.35C59.05 0.35 58.84 0.56 58.84 0.81L58.84 4.09L56.98 4.09L56.98 0.81C56.98 0.56 56.77 0.35 56.50 0.35C56.25 0.35 56.04 0.56 56.04 0.81ZM59.78 10.18L59.78 10.18L59.78 6.43C59.78 6.17 59.57 5.96 59.32 5.96L56.50 5.96C56.25 5.96 56.04 6.17 56.04 6.43L56.04 10.18C56.04 10.43 56.25 10.64 56.50 10.64C56.77 10.64 56.98 10.43 56.98 10.18L56.98 6.90L58.84 6.90L58.84 10.18C58.84 10.43 59.05 10.64 59.32 10.64C59.57 10.64 59.78 10.43 59.78 10.18ZM55.10 10.18L55.10 10.18L55.10 0.81C55.10 0.56 54.89 0.35 54.64 0.35C54.38 0.35 54.17 0.56 54.17 0.81L54.17 10.18C54.17 10.43 54.38 10.64 54.64 10.64C54.89 10.64 55.10 10.43 55.10 10.18ZM60.72 0.81L60.72 0.81L60.72 10.18C60.72 10.43 60.93 10.64 61.18 10.64C61.45 10.64 61.66 10.43 61.66 10.18L61.66 0.81C61.66 0.56 61.45 0.35 61.18 0.35C60.93 0.35 60.72 0.56 60.72 0.81ZM73.14 0.71L73.14 0.71C72.16 0.38 71.47 0.27 70.63 0.31C67.75 0.45 66.51 3.99 68.54 5.77C69.85 6.90 71.23 6.79 71.29 7.45C71.37 8.15 69.48 8.01 68.40 7.22C67.91 6.87 67.37 7.63 67.86 7.98C68.78 8.65 69.92 8.88 70.83 8.82C71.58 8.76 72.27 8.19 72.23 7.41C72.13 5.92 70.39 6.16 69.17 5.07C68.17 4.20 68.36 2.73 69.12 1.93C70.04 0.91 71.55 1.15 72.81 1.60C73.40 1.81 73.71 0.91 73.14 0.71ZM67.68 9.97L67.68 9.97C68.22 10.26 68.77 10.44 69.24 10.54C71.86 11.17 74.13 9.97 74.13 7.41C74.13 4.80 71.06 4.24 70.55 3.85C70.08 3.49 70.45 2.62 72.56 3.47C73.14 3.71 73.47 2.84 72.93 2.62C69.44 1.20 68.85 3.68 69.97 4.56C70.69 5.14 73.21 5.49 73.21 7.41C73.21 10.00 70.28 10.29 68.12 9.14C67.58 8.86 67.14 9.69 67.68 9.97ZM70.74 7.90L70.74 7.90L70.74 7.90L70.74 7.90ZM82.70 0.56L82.70 0.56C82.04 0.29 81.34 0.15 80.63 0.15C77.10 0.15 75.35 2.81 75.36 5.47C75.38 8.09 77.14 10.71 80.63 10.71C81.34 10.71 82.04 10.57 82.70 10.30C83.26 10.08 82.91 9.21 82.33 9.45C81.79 9.66 81.23 9.79 80.63 9.79C77.76 9.79 76.29 7.64 76.27 5.45C76.27 2.98 78.06 1.08 80.58 1.08C81.19 1.08 81.77 1.19 82.33 1.43C82.91 1.65 83.26 0.80 82.70 0.56ZM82.05 7.50L82.05 7.50C81.58 7.77 81.06 7.88 80.57 7.87C79.37 7.83 78.29 6.99 78.29 5.45C78.29 3.26 80.43 2.46 82.05 3.36C82.59 3.67 83.03 2.84 82.49 2.56C80.22 1.29 77.36 2.56 77.36 5.45C77.36 7.52 78.88 8.78 80.58 8.81C81.23 8.82 81.89 8.67 82.49 8.32C83.03 8.02 82.59 7.22 82.05 7.50ZM86.46 0.81L86.46 0.81L86.46 4.56C86.46 4.82 86.67 5.03 86.93 5.03L89.74 5.03C89.99 5.03 90.20 4.82 90.20 4.56L90.20 0.81C90.20 0.56 89.99 0.35 89.74 0.35C89.47 0.35 89.26 0.56 89.26 0.81L89.26 4.09L87.40 4.09L87.40 0.81C87.40 0.56 87.19 0.35 86.93 0.35C86.67 0.35 86.46 0.56 86.46 0.81ZM90.20 10.18L90.20 10.18L90.20 6.43C90.20 6.17 89.99 5.96 89.74 5.96L86.93 5.96C86.67 5.96 86.46 6.17 86.46 6.43L86.46 10.18C86.46 10.43 86.67 10.64 86.93 10.64C87.19 10.64 87.40 10.43 87.40 10.18L87.40 6.90L89.26 6.90L89.26 10.18C89.26 10.43 89.47 10.64 89.74 10.64C89.99 10.64 90.20 10.43 90.20 10.18ZM85.53 10.18L85.53 10.18L85.53 0.81C85.53 0.56 85.32 0.35 85.06 0.35C84.80 0.35 84.59 0.56 84.59 0.81L84.59 10.18C84.59 10.43 84.80 10.64 85.06 10.64C85.32 10.64 85.53 10.43 85.53 10.18ZM91.14 0.81L91.14 0.81L91.14 10.18C91.14 10.43 91.35 10.64 91.60 10.64C91.87 10.64 92.08 10.43 92.08 10.18L92.08 0.81C92.08 0.56 91.87 0.35 91.60 0.35C91.35 0.35 91.14 0.56 91.14 0.81ZM104.48 3.88L104.48 3.88C104.13 2.77 103.43 1.83 102.52 1.16C101.61 0.52 100.52 0.14 99.32 0.14C92.22 0.14 92.22 10.82 99.32 10.82C100.52 10.82 101.61 10.43 102.52 9.79C103.43 9.13 104.13 8.18 104.48 7.08C104.55 6.83 104.43 6.55 104.17 6.48C103.92 6.41 103.64 6.54 103.57 6.79C103.28 7.70 102.72 8.47 101.95 9.02C101.22 9.55 100.31 9.86 99.32 9.86C93.48 9.86 93.48 1.09 99.32 1.09C100.31 1.09 101.22 1.41 101.95 1.93C102.72 2.49 103.28 3.26 103.57 4.16C103.64 4.41 103.92 4.55 104.17 4.47C104.43 4.40 104.55 4.13 104.48 3.88ZM96.43 7.17L96.43 7.17C96.73 7.69 97.15 8.12 97.65 8.43C98.15 8.71 98.73 8.88 99.32 8.88C100.25 8.88 101.09 8.50 101.71 7.87C102.30 7.25 102.68 6.41 102.68 5.47C102.68 4.54 102.30 3.70 101.71 3.08C101.09 2.46 100.25 2.09 99.32 2.09C98.73 2.09 98.15 2.24 97.65 2.53C97.15 2.83 96.73 3.26 96.43 3.78C96.29 4.02 96.38 4.31 96.60 4.44C96.84 4.56 97.12 4.48 97.24 4.24C97.47 3.88 97.78 3.57 98.14 3.36C98.49 3.15 98.88 3.04 99.32 3.04C99.99 3.04 100.59 3.32 101.01 3.75C101.46 4.19 101.72 4.80 101.72 5.47C101.72 6.16 101.46 6.78 101.01 7.21C100.59 7.66 99.99 7.92 99.32 7.92C98.88 7.92 98.48 7.80 98.14 7.59C97.78 7.39 97.47 7.07 97.24 6.71C97.12 6.47 96.84 6.40 96.60 6.52C96.38 6.66 96.29 6.93 96.43 7.17ZM116.54 3.88L116.54 3.88C116.19 2.77 115.49 1.83 114.58 1.16C113.67 0.52 112.57 0.14 111.37 0.14C104.27 0.14 104.27 10.82 111.37 10.82C112.57 10.82 113.67 10.43 114.58 9.79C115.49 9.13 116.19 8.18 116.54 7.08C116.61 6.83 116.48 6.55 116.23 6.48C115.98 6.41 115.70 6.54 115.63 6.79C115.33 7.70 114.77 8.47 114.00 9.02C113.27 9.55 112.36 9.86 111.37 9.86C105.53 9.86 105.53 1.09 111.37 1.09C112.36 1.09 113.27 1.41 114.00 1.93C114.77 2.49 115.33 3.26 115.63 4.16C115.70 4.41 115.98 4.55 116.23 4.47C116.48 4.40 116.61 4.13 116.54 3.88ZM108.49 7.17L108.49 7.17C108.78 7.69 109.20 8.12 109.70 8.43C110.21 8.71 110.78 8.88 111.37 8.88C112.31 8.88 113.15 8.50 113.76 7.87C114.35 7.25 114.73 6.41 114.73 5.47C114.73 4.54 114.35 3.70 113.76 3.08C113.15 2.46 112.31 2.09 111.37 2.09C110.78 2.09 110.21 2.24 109.70 2.53C109.20 2.83 108.78 3.26 108.49 3.78C108.35 4.02 108.43 4.31 108.65 4.44C108.89 4.56 109.17 4.48 109.30 4.24C109.52 3.88 109.83 3.57 110.19 3.36C110.54 3.15 110.94 3.04 111.37 3.04C112.04 3.04 112.64 3.32 113.06 3.75C113.51 4.19 113.78 4.80 113.78 5.47C113.78 6.16 113.51 6.78 113.06 7.21C112.64 7.66 112.04 7.92 111.37 7.92C110.94 7.92 110.53 7.80 110.19 7.59C109.83 7.39 109.52 7.07 109.30 6.71C109.17 6.47 108.89 6.40 108.65 6.52C108.43 6.66 108.35 6.93 108.49 7.17ZM124.36 9.70L124.36 9.70L119.38 9.70L119.38 0.81C119.38 0.56 119.17 0.35 118.92 0.35C118.65 0.35 118.44 0.56 118.44 0.81L118.44 10.18C118.44 10.43 118.65 10.64 118.92 10.64L124.36 10.64C124.63 10.64 124.82 10.43 124.82 10.18C124.82 9.91 124.63 9.70 124.36 9.70ZM120.32 0.81L120.32 0.81L120.32 8.30C120.32 8.55 120.53 8.76 120.78 8.76L124.36 8.76C124.63 8.76 124.82 8.55 124.82 8.30C124.82 8.04 124.63 7.83 124.36 7.83L121.25 7.83L121.25 0.81C121.25 0.56 121.04 0.35 120.78 0.35C120.53 0.35 120.32 0.56 120.32 0.81Z"></path></g><!----><!----></svg>